<?xml version="1.0" encoding="UTF-8" standalone="no"?>
<svg width="51px" height="56px" viewBox="0 0 51 56" version="1.1" xmlns="http://www.w3.org/2000/svg" xmlns:xlink="http://www.w3.org/1999/xlink">
    <!-- Generator: Sketch 41.2 (35397) - http://www.bohemiancoding.com/sketch -->
    <title>Group</title>
    <desc>Created with Sketch.</desc>
    <defs></defs>
    <g id="Page-2" stroke="none" stroke-width="1" fill="none" fill-rule="evenodd">
        <g id="Group" transform="translate(25.859086, 28.857258) rotate(-92.000000) translate(-25.859086, -28.857258) translate(-2.140914, 3.857258)" fill="#000000">
            <path d="M33,46 C45.7025492,46 56,35.7025492 56,23 C56,10.2974508 45.7025492,6.82121026e-13 33,6.82121026e-13 C20.2974508,6.82121026e-13 10,10.2974508 10,23 C10,35.7025492 20.2974508,46 33,46 Z M33,40 C23.6111593,40 16,32.3888407 16,23 C16,13.6111593 23.6111593,6 33,6 C42.3888407,6 50,13.6111593 50,23 C50,32.3888407 42.3888407,40 33,40 Z" id="Oval"></path>
            <circle id="Oval" cx="33" cy="23" r="10"></circle>
            <path d="M23.8295878,27.0092597 L26.4007382,30.0734374 L3.41940494,49.3570657 L0.848254501,46.292888 L23.8295878,27.0092597 Z" id="Rectangle"></path>
        </g>
    </g>
</svg>